<svg width="512" height="513" viewBox="0 0 512 513" fill="none" xmlns="http://www.w3.org/2000/svg">
<g clip-path="url(#clip0)">
<path d="M452 40.531H428V0.531006H388V40.531H124V0.531006H84V40.531H60C26.916 40.531 0 67.447 0 100.531V452.531C0 485.615 26.916 512.531 60 512.531H452C485.084 512.531 512 485.615 512 452.531V100.531C512 67.447 485.084 40.531 452 40.531ZM472 452.531C472 463.559 463.028 472.531 452 472.531H60C48.972 472.531 40 463.559 40 452.531V188.531H472V452.531ZM472 148.531H40V100.531C40 89.503 48.972 80.531 60 80.531H84V120.531H124V80.531H388V120.531H428V80.531H452C463.028 80.531 472 89.503 472 100.531V148.531Z" fill="#548FE8"/>
<path d="M116 230.531H76V270.531H116V230.531Z" fill="#548FE8"/>
<path d="M196 230.531H156V270.531H196V230.531Z" fill="#548FE8"/>
<path d="M276 230.531H236V270.531H276V230.531Z" fill="#548FE8"/>
<path d="M356 230.531H316V270.531H356V230.531Z" fill="#548FE8"/>
<path d="M436 230.531H396V270.531H436V230.531Z" fill="#548FE8"/>
<path d="M116 310.531H76V350.531H116V310.531Z" fill="#548FE8"/>
<path d="M196 310.531H156V350.531H196V310.531Z" fill="#548FE8"/>
<path d="M276 310.531H236V350.531H276V310.531Z" fill="#548FE8"/>
<path d="M356 310.531H316V350.531H356V310.531Z" fill="#548FE8"/>
<path d="M116 390.531H76V430.531H116V390.531Z" fill="#548FE8"/>
<path d="M196 390.531H156V430.531H196V390.531Z" fill="#548FE8"/>
<path d="M276 390.531H236V430.531H276V390.531Z" fill="#548FE8"/>
<path d="M356 390.531H316V430.531H356V390.531Z" fill="#548FE8"/>
<path d="M436 310.531H396V350.531H436V310.531Z" fill="#548FE8"/>
</g>
<defs>
<clipPath id="clip0">
<rect y="0.531006" width="512" height="512" fill="white"/>
</clipPath>
</defs>
</svg>
