<svg width="390" height="390" viewBox="0 0 390 390" fill="none" xmlns="http://www.w3.org/2000/svg">
<path d="M194.728 53.3345C116.422 53.3345 52.8041 116.952 52.8041 195.257C52.8041 273.563 116.422 337.182 194.728 337.182C273.033 337.182 336.652 273.564 336.652 195.259C336.652 116.954 273.033 53.3345 194.728 53.3345ZM194.728 322.224C124.542 322.224 67.5257 265.208 67.5257 195.022C67.5257 124.837 124.541 67.8209 194.728 67.8209C264.914 67.8209 321.93 124.837 321.93 195.023C321.93 265.209 264.914 322.224 194.728 322.224Z" fill="#548FE8" stroke="#548FE8" stroke-width="10"/>
<path d="M79.0495 187.898H25.1072C23.1548 187.898 21.2341 188.667 19.8494 190.218C18.5105 191.718 18 193.572 18 195.259C18 196.945 18.5105 198.8 19.8494 200.3C21.2341 201.851 23.1548 202.62 25.1072 202.62H79.0495C83.0741 202.62 86.1567 199.222 86.1567 195.259C86.1567 193.573 85.6469 191.719 84.3079 190.218C82.9228 188.666 81.0016 187.898 79.0495 187.898Z" fill="#548FE8" stroke="#548FE8" stroke-width="10"/>
<path d="M310.384 187.898H363.909C365.837 187.898 367.749 188.648 369.137 190.185C370.482 191.676 371 193.527 371 195.214C371 196.901 370.483 198.752 369.137 200.244C367.749 201.782 365.837 202.531 363.909 202.531H310.384C308.456 202.531 306.544 201.782 305.156 200.243C303.81 198.752 303.293 196.901 303.293 195.214C303.293 193.528 303.81 191.677 305.156 190.185C306.544 188.647 308.456 187.898 310.384 187.898Z" fill="#548FE8" stroke="#548FE8" stroke-width="10"/>
<path d="M202.089 310.885L202.089 310.882C202.087 308.904 201.286 306.986 199.722 305.625C198.22 304.317 196.382 303.831 194.728 303.831C193.075 303.831 191.237 304.316 189.735 305.624C188.169 306.986 187.367 308.905 187.367 310.885V363.477C187.367 365.456 188.168 367.375 189.733 368.737C191.236 370.045 193.074 370.531 194.728 370.531C196.382 370.531 198.219 370.045 199.722 368.738C201.286 367.376 202.089 365.458 202.089 363.477L202.089 310.885Z" fill="#548FE8" stroke="#548FE8" stroke-width="10"/>
<path d="M202.089 24.6744L202.089 24.6712C202.087 22.6074 201.222 20.6546 199.61 19.297C198.075 18.0032 196.214 17.531 194.544 17.531C192.876 17.531 191.015 18.0024 189.479 19.296C187.866 20.6541 187 22.6085 187 24.6744V79.5443C187 81.6091 187.866 83.5633 189.478 84.9217C191.014 86.2158 192.875 86.6877 194.544 86.6877C198.336 86.6877 202.089 83.8485 202.089 79.5443L202.089 24.6744Z" fill="#548FE8" stroke="#548FE8" stroke-width="10"/>
</svg>
