<svg width="390" height="390" viewBox="0 0 390 390" fill="none" xmlns="http://www.w3.org/2000/svg">
<path d="M194.728 52.8035C116.422 52.8035 52.8041 116.421 52.8041 194.726C52.8041 273.032 116.422 336.651 194.728 336.651C273.033 336.651 336.652 273.033 336.652 194.728C336.652 116.423 273.033 52.8035 194.728 52.8035ZM194.728 321.693C124.542 321.693 67.5257 264.677 67.5257 194.491C67.5257 124.306 124.541 67.2899 194.728 67.2899C264.914 67.2899 321.93 124.306 321.93 194.492C321.93 264.678 264.914 321.693 194.728 321.693Z" fill="black" stroke="black" stroke-width="10"/>
<path d="M79.0495 187.367H25.1072C23.1548 187.367 21.2341 188.136 19.8494 189.687C18.5105 191.187 18 193.041 18 194.728C18 196.414 18.5105 198.269 19.8494 199.769C21.2341 201.32 23.1548 202.089 25.1072 202.089H79.0495C83.0741 202.089 86.1567 198.691 86.1567 194.728C86.1567 193.042 85.6469 191.188 84.3079 189.687C82.9228 188.135 81.0016 187.367 79.0495 187.367Z" fill="black" stroke="black" stroke-width="10"/>
<path d="M310.384 187.367H363.909C365.837 187.367 367.749 188.117 369.137 189.654C370.482 191.145 371 192.996 371 194.683C371 196.37 370.483 198.221 369.137 199.713C367.749 201.251 365.837 202 363.909 202H310.384C308.456 202 306.544 201.251 305.156 199.712C303.81 198.221 303.293 196.37 303.293 194.683C303.293 192.997 303.81 191.146 305.156 189.654C306.544 188.116 308.456 187.367 310.384 187.367Z" fill="black" stroke="black" stroke-width="10"/>
<path d="M202.089 310.354L202.089 310.351C202.087 308.373 201.286 306.455 199.722 305.094C198.22 303.786 196.382 303.3 194.728 303.3C193.075 303.3 191.237 303.785 189.735 305.093C188.169 306.455 187.367 308.374 187.367 310.354V362.946C187.367 364.925 188.168 366.844 189.733 368.206C191.236 369.514 193.074 370 194.728 370C196.382 370 198.219 369.514 199.722 368.207C201.286 366.845 202.089 364.927 202.089 362.946L202.089 310.354Z" fill="black" stroke="black" stroke-width="10"/>
<path d="M202.089 24.1434L202.089 24.1402C202.087 22.0764 201.222 20.1236 199.61 18.766C198.075 17.4722 196.214 17 194.544 17C192.876 17 191.015 17.4714 189.479 18.765C187.866 20.1231 187 22.0775 187 24.1434V79.0132C187 81.0781 187.866 83.0323 189.478 84.3907C191.014 85.6848 192.875 86.1567 194.544 86.1567C198.336 86.1567 202.089 83.3175 202.089 79.0132L202.089 24.1434Z" fill="black" stroke="black" stroke-width="10"/>
</svg>
