<svg width="512" height="512" viewBox="0 0 512 512" fill="none" xmlns="http://www.w3.org/2000/svg">
<path d="M510.194 221.846L441.735 84.3529C438.813 78.4909 432.83 74.7859 426.283 74.7859H85.717C79.17 74.7859 73.187 78.4909 70.265 84.3529L1.806 221.846C0.616 224.233 0 226.868 0 229.537V419.955C0 429.487 7.726 437.213 17.258 437.213H494.741C504.273 437.213 511.999 429.487 511.999 419.955V229.537C512 226.868 511.384 224.233 510.194 221.846ZM96.4 109.303H415.595L467.157 212.854H355.524C347.366 212.854 340.308 218.636 338.622 226.615C338.006 229.532 322.75 297.996 253.124 297.996C183.498 297.996 168.241 229.532 167.637 226.684C166.009 218.636 158.933 212.854 150.724 212.854H44.843L96.4 109.303ZM477.483 402.697H34.517V247.371H137.625C149.752 282.71 184.269 332.513 253.124 332.513C321.985 332.513 356.502 282.711 368.623 247.371H477.483V402.697Z" fill="black"/>
</svg>
