<svg width="512" height="513" viewBox="0 0 512 513" fill="none" xmlns="http://www.w3.org/2000/svg">
<path d="M510.194 222.377L441.735 84.8839C438.813 79.0219 432.83 75.3169 426.283 75.3169H85.717C79.17 75.3169 73.187 79.0219 70.265 84.8839L1.806 222.377C0.616 224.764 0 227.399 0 230.068V420.486C0 430.018 7.726 437.744 17.258 437.744H494.741C504.273 437.744 511.999 430.018 511.999 420.486V230.068C512 227.399 511.384 224.764 510.194 222.377ZM96.4 109.834H415.595L467.157 213.385H355.524C347.366 213.385 340.308 219.167 338.622 227.146C338.006 230.063 322.75 298.527 253.124 298.527C183.498 298.527 168.241 230.063 167.637 227.215C166.009 219.167 158.933 213.385 150.724 213.385H44.843L96.4 109.834ZM477.483 403.228H34.517V247.902H137.625C149.752 283.241 184.269 333.044 253.124 333.044C321.985 333.044 356.502 283.242 368.623 247.902H477.483V403.228Z" fill="#548FE8"/>
</svg>
