<svg width="143" height="40" viewBox="0 0 143 40" fill="none" xmlns="http://www.w3.org/2000/svg">
<mask id="mask0" mask-type="alpha" maskUnits="userSpaceOnUse" x="0" y="0" width="41" height="40">
<circle cx="20.5" cy="20" r="20" fill="#C4C4C4"/>
</mask>
<g mask="url(#mask0)">
<rect x="0.5" width="40" height="40" fill="#548FE8"/>
<path d="M45.3682 0.591551C46.3986 -0.496932 48.087 -0.515146 49.1392 0.55087L50.0918 1.51597C51.144 2.58198 51.1616 4.32855 50.1311 5.41703L23.6183 33.4221C22.5878 34.5106 20.8995 34.5288 19.8473 33.4628L18.8947 32.4977C17.8425 31.4317 17.8249 29.6851 18.8554 28.5966L45.3682 0.591551Z" fill="white"/>
<path d="M10.3543 23.3299C9.33017 22.2351 9.35794 20.4886 10.4163 19.4292L11.3745 18.47C12.4329 17.4106 14.1211 17.4393 15.1452 18.5342L24.4186 28.4482C25.4427 29.5431 25.4149 31.2895 24.3565 32.349L23.3983 33.3081C22.34 34.3676 20.6517 34.3388 19.6276 33.2439L10.3543 23.3299Z" fill="white"/>
</g>
<path d="M78.0781 12.6602H71.4277V31H67.751V12.6602H61.1592V9.67188H78.0781V12.6602ZM76.833 22.9287C76.833 21.376 77.1406 19.9795 77.7559 18.7393C78.3711 17.4893 79.2354 16.5322 80.3486 15.8682C81.4619 15.1943 82.7412 14.8574 84.1865 14.8574C86.3252 14.8574 88.0586 15.5459 89.3867 16.9229C90.7246 18.2998 91.4473 20.126 91.5547 22.4014L91.5693 23.2363C91.5693 24.7988 91.2666 26.1953 90.6611 27.4258C90.0654 28.6562 89.2061 29.6084 88.083 30.2822C86.9697 30.9561 85.6807 31.293 84.2158 31.293C81.9795 31.293 80.1875 30.5508 78.8398 29.0664C77.502 27.5723 76.833 25.585 76.833 23.1045V22.9287ZM80.3926 23.2363C80.3926 24.8672 80.7295 26.1465 81.4033 27.0742C82.0771 27.9922 83.0146 28.4512 84.2158 28.4512C85.417 28.4512 86.3496 27.9824 87.0137 27.0449C87.6875 26.1074 88.0244 24.7354 88.0244 22.9287C88.0244 21.3271 87.6777 20.0576 86.9844 19.1201C86.3008 18.1826 85.3682 17.7139 84.1865 17.7139C83.0244 17.7139 82.1016 18.1777 81.418 19.1055C80.7344 20.0234 80.3926 21.4004 80.3926 23.2363ZM93.9131 22.958C93.9131 20.5166 94.4795 18.5586 95.6123 17.084C96.7451 15.5996 98.2637 14.8574 100.168 14.8574C101.848 14.8574 103.205 15.4434 104.24 16.6152V8.5H107.8V31H104.577L104.401 29.3594C103.337 30.6484 101.916 31.293 100.139 31.293C98.2832 31.293 96.7793 30.5459 95.627 29.0518C94.4844 27.5576 93.9131 25.5264 93.9131 22.958ZM97.4727 23.2656C97.4727 24.877 97.7803 26.1367 98.3955 27.0449C99.0205 27.9434 99.9043 28.3926 101.047 28.3926C102.502 28.3926 103.566 27.7432 104.24 26.4443V19.6768C103.586 18.4072 102.531 17.7725 101.076 17.7725C99.9238 17.7725 99.0352 18.2314 98.4102 19.1494C97.7852 20.0576 97.4727 21.4297 97.4727 23.2656ZM110.847 22.9287C110.847 21.376 111.154 19.9795 111.77 18.7393C112.385 17.4893 113.249 16.5322 114.362 15.8682C115.476 15.1943 116.755 14.8574 118.2 14.8574C120.339 14.8574 122.072 15.5459 123.4 16.9229C124.738 18.2998 125.461 20.126 125.568 22.4014L125.583 23.2363C125.583 24.7988 125.28 26.1953 124.675 27.4258C124.079 28.6562 123.22 29.6084 122.097 30.2822C120.983 30.9561 119.694 31.293 118.229 31.293C115.993 31.293 114.201 30.5508 112.854 29.0664C111.516 27.5723 110.847 25.585 110.847 23.1045V22.9287ZM114.406 23.2363C114.406 24.8672 114.743 26.1465 115.417 27.0742C116.091 27.9922 117.028 28.4512 118.229 28.4512C119.431 28.4512 120.363 27.9824 121.027 27.0449C121.701 26.1074 122.038 24.7354 122.038 22.9287C122.038 21.3271 121.691 20.0576 120.998 19.1201C120.314 18.1826 119.382 17.7139 118.2 17.7139C117.038 17.7139 116.115 18.1777 115.432 19.1055C114.748 20.0234 114.406 21.4004 114.406 23.2363ZM132.16 28.1582H140.598V31H127.736V28.6709L135.778 18.0215H127.883V15.1504H140.29V17.4062L132.16 28.1582Z" fill="#548FE8"/>
</svg>
